Coordinates
version=1
nRows=11
nColumns=63
inDegrees=yes

Units are S.I. units (second, meters, Newtons, ...)
If the header above contains a line with 'inDegrees', this indicates whether rotational values are in degrees (yes) or radians (no).

endheader
time	pelvis_tilt	pelvis_list	pelvis_rotation	pelvis_tx	pelvis_ty	pelvis_tz	hip_flexion_r	hip_adduction_r	hip_rotation_r	knee_angle_r	knee_angle_r_beta	ankle_angle_r	subtalar_angle_r	mtp_angle_r	hip_flexion_l	hip_adduction_l	hip_rotation_l	knee_angle_l	knee_angle_l_beta	ankle_angle_l	subtalar_angle_l	mtp_angle_l	L5_S1_Flex_Ext	L5_S1_Lat_Bending	L5_S1_axial_rotation	L4_L5_Flex_Ext	L4_L5_Lat_Bending	L4_L5_axial_rotation	L3_L4_Flex_Ext	L3_L4_Lat_Bending	L3_L4_axial_rotation	L2_L3_Flex_Ext	L2_L3_Lat_Bending	L2_L3_axial_rotation	L1_L2_Flex_Ext	L1_L2_Lat_Bending	L1_L2_axial_rotation	L1_T12_Flex_Ext	L1_T12_Lat_Bending	L1_T12_axial_rotation	Abs_r3	Abs_r2	Abs_r1	Abs_t1	Abs_t2	neck_flexion	neck_bending	neck_rotation	arm_flex_r	arm_add_r	arm_rot_r	elbow_flex_r	pro_sup_r	wrist_flex_r	wrist_dev_r	arm_flex_l	arm_add_l	arm_rot_l	elbow_flex_l	pro_sup_l	wrist_flex_l	wrist_dev_l
1.464286	-0.630002	-4.096360	89.982305	0.200144	0.975018	0.207993	7.533017	-0.513785	-10.813385	10.680106	0.186403	28.432483	14.543572	0.000000	6.969271	0.614530	-15.374697	11.513653	0.200951	24.573954	7.411432	0.000000	-0.421288	0.084286	-2.067007	-0.782373	0.112100	-2.196195	-0.692133	0.204933	-2.196195	-0.481490	0.204933	-1.808631	-0.391208	0.171876	-1.679443	-0.240724	0.130559	-1.550255	-3.009215	0.953460	-11.496073	0.000000	0.000000	14.908041	3.079215	-30.615386	50.532819	-11.785656	-1.076135	136.463628	89.389279	-18.350371	5.888452	-3.659848	-20.008851	45.061458	31.866178	73.995124	-15.959197	-9.834039
1.482143	-0.662418	-4.122585	89.851384	0.200380	0.975272	0.208068	7.389064	-0.508898	-10.692487	10.324276	0.180193	28.137536	14.742173	0.000000	6.908142	0.639514	-15.306555	11.427782	0.199452	24.337504	7.246611	0.000000	-0.406284	0.088667	-2.038161	-0.754510	0.117927	-2.165547	-0.667484	0.215585	-2.165547	-0.464342	0.215585	-1.783391	-0.377276	0.180810	-1.656006	-0.232151	0.137345	-1.528621	-2.902048	1.003021	-11.335642	0.000000	0.000000	15.475068	2.489182	-30.559680	50.327590	-11.787646	-1.044154	136.114735	89.380275	-18.278311	5.640764	-3.370626	-20.067891	46.072164	31.818465	73.489328	-16.183333	-10.017188
1.500000	-0.700572	-4.136850	89.738089	0.200642	0.975576	0.208073	7.247245	-0.523193	-10.681055	10.020243	0.174886	27.816318	14.997577	0.000000	6.829748	0.675138	-15.210713	11.329468	0.197737	24.065811	7.041923	0.000000	-0.390462	0.089791	-2.013107	-0.725127	0.119422	-2.138927	-0.641490	0.218318	-2.138927	-0.446259	0.218318	-1.761469	-0.362583	0.183102	-1.635650	-0.223110	0.139086	-1.509831	-2.789032	1.015734	-11.196300	0.000000	0.000000	15.871686	1.887379	-30.598828	50.066451	-11.802770	-1.037946	135.789811	89.371769	-18.305969	5.382889	-3.106441	-20.143648	47.067560	31.823667	72.716319	-16.492477	-10.209890
1.517857	-0.746397	-4.143896	89.631261	0.200955	0.975922	0.207980	7.122884	-0.559853	-10.771552	9.791150	0.170888	27.488421	15.299608	0.000000	6.738261	0.721484	-15.104420	11.217544	0.195783	23.787872	6.812650	0.000000	-0.372874	0.086596	-1.994361	-0.692464	0.115173	-2.119009	-0.612594	0.210550	-2.119009	-0.426158	0.210550	-1.745066	-0.346251	0.176587	-1.620419	-0.213060	0.134137	-1.495771	-2.663401	0.979592	-11.092040	0.000000	0.000000	16.073999	1.300800	-30.738311	49.727094	-11.835936	-1.080548	135.527801	89.365619	-18.384479	5.202913	-2.964662	-20.186025	47.612210	31.906235	72.184504	-16.737295	-10.211222
1.535714	-0.791123	-4.141541	89.529449	0.201324	0.976316	0.207813	7.008588	-0.598760	-10.911730	9.616751	0.167844	27.156821	15.588673	0.000000	6.630278	0.770137	-14.969573	11.080264	0.193387	23.511228	6.557720	0.000000	-0.354630	0.079578	-1.983679	-0.658582	0.105838	-2.107659	-0.582621	0.193485	-2.107659	-0.405306	0.193485	-1.735719	-0.329309	0.162275	-1.611739	-0.202635	0.123266	-1.487759	-2.533083	0.900199	-11.032629	0.000000	0.000000	16.145902	0.786760	-30.970166	49.293789	-11.874217	-1.197214	135.319134	89.359600	-18.500533	4.990299	-2.910452	-20.208609	47.863050	32.033848	71.594777	-16.928768	-10.060092
1.553571	-0.832327	-4.131490	89.407934	0.201783	0.976755	0.207590	6.918028	-0.634077	-11.064211	9.509263	0.165968	26.832133	15.851713	0.000000	6.511510	0.813470	-14.855010	10.925746	0.190690	23.267067	6.308988	0.000000	-0.335727	0.068473	-1.974717	-0.623478	0.091069	-2.098136	-0.551565	0.166484	-2.098136	-0.383702	0.166484	-1.727877	-0.311756	0.139629	-1.604457	-0.191834	0.106064	-1.481037	-2.398063	0.774576	-10.982781	0.000000	0.000000	16.071629	0.350035	-31.363580	48.739946	-11.941998	-1.428615	135.206870	89.355446	-18.622702	4.848355	-2.954554	-20.193737	47.676160	32.229509	71.291931	-17.023006	-9.595135
1.571429	-0.855567	-4.100050	89.283809	0.202309	0.977231	0.207315	6.827947	-0.643700	-11.197012	9.450739	0.164947	26.516049	16.024831	0.000000	6.372027	0.840050	-14.701124	10.758331	0.187768	23.068227	6.022110	0.000000	-0.317779	0.055592	-1.977636	-0.590148	0.073938	-2.101239	-0.522080	0.135167	-2.101239	-0.363190	0.135167	-1.730432	-0.295090	0.113364	-1.606830	-0.181579	0.086112	-1.483227	-2.269867	0.628870	-10.999020	0.000000	0.000000	15.833317	-0.004756	-31.826502	48.086688	-12.020203	-1.733297	135.159988	89.357076	-18.709062	4.801848	-3.125380	-20.136466	47.024436	32.515742	71.098882	-17.016915	-8.841057
1.589286	-0.872333	-4.056797	89.117114	0.202951	0.977732	0.207007	6.767622	-0.644587	-11.321419	9.468941	0.165264	26.222952	16.170342	0.000000	6.224666	0.853400	-14.586730	10.591512	0.184857	22.929836	5.747992	0.000000	-0.298826	0.039165	-1.971052	-0.554949	0.052089	-2.094242	-0.490941	0.095225	-2.094242	-0.341528	0.095225	-1.724670	-0.277490	0.079864	-1.601480	-0.170749	0.060666	-1.478289	-2.134482	0.443037	-10.962398	0.000000	0.000000	15.401877	-0.295106	-32.493036	47.276035	-12.179563	-2.172401	135.208185	89.366003	-18.799783	4.830004	-3.320085	-20.065487	46.116930	32.852670	71.235464	-16.860725	-7.777761
1.607143	-0.877199	-3.997557	88.909041	0.203713	0.978249	0.206637	6.724129	-0.633674	-11.478496	9.553941	0.166748	25.949814	16.344924	0.000000	6.062410	0.843004	-14.542111	10.429475	0.182029	22.860162	5.535856	0.000000	-0.278950	0.020238	-1.954589	-0.518039	0.026916	-2.076751	-0.458287	0.049206	-2.076751	-0.318812	0.049206	-1.710266	-0.259033	0.041269	-1.588104	-0.159392	0.031348	-1.465942	-1.992514	0.228933	-10.870840	0.000000	0.000000	14.796477	-0.491881	-33.299435	46.294742	-12.436621	-2.729904	135.318796	89.392122	-18.876424	4.942375	-3.538383	-19.974870	44.952509	33.244424	71.720128	-16.528182	-6.407805
1.625000	-0.876388	-3.915751	88.654423	0.204607	0.978772	0.206184	6.684222	-0.611236	-11.607034	9.694312	0.169198	25.689799	16.480477	0.000000	5.874256	0.818733	-14.556112	10.272918	0.179296	22.850504	5.367198	0.000000	-0.258577	-0.001300	-1.925097	-0.480203	-0.001729	-2.045416	-0.424815	-0.003161	-2.045416	-0.295527	-0.003161	-1.684460	-0.240114	-0.002651	-1.564141	-0.147751	-0.002014	-1.443823	-1.846987	-0.014705	-10.706812	0.000000	0.000000	14.049475	-0.589147	-34.191247	45.133222	-12.794687	-3.384521	135.437045	89.454343	-18.954070	5.054813	-3.753608	-19.875766	43.651893	33.676065	72.525890	-16.071622	-4.831803
1.642857	-0.869552	-3.817509	88.340338	0.205647	0.979286	0.205662	6.658271	-0.583844	-11.752735	9.896300	0.172723	25.438377	16.661537	0.000000	5.666896	0.775380	-14.691541	10.129812	0.176799	22.902560	5.291736	0.000000	-0.237448	-0.024781	-1.875067	-0.440965	-0.032959	-1.992258	-0.390104	-0.060253	-1.992258	-0.271380	-0.060253	-1.640683	-0.220494	-0.050534	-1.523492	-0.135678	-0.038386	-1.406300	-1.696069	-0.280330	-10.428559	0.000000	0.000000	13.263890	-0.539037	-35.124154	43.779489	-13.274748	-4.132990	135.544012	89.499097	-19.017337	5.138315	-3.895040	-19.772200	42.426459	34.084285	73.610000	-15.543077	-3.170311
